<svg version="1.1" id="Layer_1" xmlns="http://www.w3.org/2000/svg" xmlns:xlink="http://www.w3.org/1999/xlink" x="0px" y="0px"
	 width="100%" viewBox="0 0 973 702" enable-background="new 0 0 973 702" xml:space="preserve">

<path fill="#CC532B" opacity="1.000000" stroke="none" 
	d="
M508.168579,158.032944 
	C508.112762,146.718765 508.094727,135.404221 507.979126,124.090652 
	C507.942383,120.492851 509.829529,119.480850 513.109985,118.836327 
	C520.311035,117.421478 527.432556,115.558502 534.525085,113.650032 
	C539.679321,112.263115 544.845703,110.792702 549.806152,108.847977 
	C555.856750,106.475861 562.126526,104.231552 567.528870,100.737373 
	C575.763977,95.410927 583.669189,89.442619 591.071960,83.007767 
	C595.962158,78.757065 599.736084,73.219208 603.992554,68.242912 
	C616.774658,53.299152 630.925232,39.761986 647.122131,28.627546 
	C654.584167,23.497805 662.993530,19.727259 671.048279,15.482630 
	C685.509216,7.862205 701.190735,4.662421 717.267090,2.927986 
	C717.975159,2.851601 718.620911,2.198587 719.147827,1.407085 
	C741.354248,1.000000 763.708435,1.000000 786.376221,1.401909 
	C787.362976,2.192025 787.992676,2.783319 788.715820,2.937983 
	C799.700745,5.287730 810.953613,6.758660 821.631348,10.081792 
	C837.051941,14.880992 852.465576,20.048843 866.189514,29.024500 
	C874.657166,34.562466 883.474548,39.609097 891.630981,45.566433 
	C898.994995,50.945000 905.788086,57.133064 912.620422,63.203445 
	C918.713562,68.617180 924.757202,74.128502 930.370972,80.026726 
	C934.963318,84.851830 938.897522,90.304398 943.110474,95.489410 
	C950.075439,104.061310 957.445312,112.346817 963.826294,121.334007 
	C967.411011,126.382835 969.320923,132.613297 972.078674,138.265884 
	C972.429565,138.985184 973.345764,139.428680 974.000000,139.999985 
	C974.000000,144.356903 974.000000,148.713806 974.000000,153.535355 
	C973.892090,153.873047 973.784180,153.746094 973.676270,153.619141 
	C968.111084,160.140625 960.578003,159.025177 953.245361,159.023788 
	C805.461243,158.995651 657.677124,159.007980 509.297058,158.796539 
	C508.526154,158.395737 508.348663,158.213089 508.168579,158.032944 
z"/>
<path fill="#CC532B" opacity="1.000000" stroke="none" 
	d="
M695.468628,703.000000 
	C694.216125,702.337219 693.486755,701.177795 692.640259,701.084900 
	C674.806885,699.128601 657.790283,694.280579 641.366333,687.125916 
	C634.326111,684.059143 626.716858,682.084656 620.091187,678.333374 
	C611.366211,673.393616 603.043457,667.594849 595.108093,661.442749 
	C582.053711,651.322021 569.232544,640.870483 556.761292,630.042236 
	C551.772766,625.710938 547.930237,620.046448 543.642578,614.924683 
	C537.634216,607.747498 531.679810,600.524841 525.734436,593.295227 
	C518.264832,584.212158 511.790466,574.492737 509.214844,562.852844 
	C508.338013,558.890137 507.976196,554.132996 509.389221,550.526489 
	C510.947906,546.548096 515.214233,544.902222 520.126709,544.907715 
	C626.955688,545.027161 733.784851,545.000732 840.614014,544.999573 
	C884.445374,544.999084 928.276733,544.991882 972.737305,545.203369 
	C973.596680,545.591858 973.807861,545.785522 974.000000,546.000000 
	C974.000000,558.354248 974.000000,570.708435 973.627563,583.298462 
	C972.390442,583.998169 971.575256,584.690552 970.653320,584.890564 
	C960.948792,586.996216 951.077087,588.500427 941.557373,591.235352 
	C933.780396,593.469604 926.242554,596.778992 918.912903,600.271118 
	C907.944397,605.496826 898.716431,613.404236 890.117676,621.768005 
	C882.263611,629.407349 875.553284,638.209656 868.138855,646.316467 
	C850.685547,665.399780 830.459412,680.804138 806.585938,690.967651 
	C793.773315,696.422363 780.200562,699.377502 766.364258,701.072449 
	C765.181885,701.217224 764.118591,702.334473 763.000000,703.000000 
	C740.645752,703.000000 718.291565,703.000000 695.468628,703.000000 
z"/>
<path fill="#CC532B" opacity="1.000000" stroke="none" 
	d="
M1.972771,545.139465 
	C22.457256,545.076782 42.941742,544.960449 63.426228,544.960266 
	C192.854904,544.959106 322.283691,545.072144 451.712097,544.888672 
	C468.044647,544.865540 467.425293,552.427551 465.536499,563.131836 
	C463.454346,574.932068 456.059753,584.510254 448.711761,593.792847 
	C441.671936,602.686096 434.821625,611.738525 427.523346,620.414246 
	C424.016937,624.582336 419.781586,628.169739 415.678528,631.796265 
	C408.649170,638.009338 401.745605,644.417969 394.278778,650.070129 
	C383.256195,658.413940 371.965485,666.435486 360.464600,674.108093 
	C343.650360,685.325562 324.452759,691.125549 305.355804,696.879089 
	C298.208740,699.032288 290.601318,699.648499 283.215332,701.027161 
	C282.009430,701.252197 280.863525,701.798401 279.844940,702.598083 
	C257.645782,703.000000 235.291550,703.000000 212.616486,702.592896 
	C208.687622,701.457581 205.105942,700.539612 201.466980,700.033875 
	C185.355972,697.794983 170.367554,692.208435 155.925598,684.969666 
	C143.807816,678.895752 132.829117,671.101135 123.009712,661.830811 
	C114.061493,653.382874 105.559341,644.457275 96.973907,635.632019 
	C91.478836,629.983459 86.567955,623.709473 80.704681,618.491760 
	C74.490921,612.962219 67.649765,608.064575 60.704617,603.461182 
	C57.276283,601.188843 52.939236,600.328064 49.116459,598.600464 
	C43.753963,596.176880 38.714588,592.725037 33.131207,591.170959 
	C22.573421,588.232361 11.726671,586.331848 1.000000,584.000000 
	C1.000000,571.645752 1.000000,559.291565 1.153645,546.315796 
	C1.531573,545.512329 1.753400,545.327393 1.972771,545.139465 
z"/>
<path fill="#CC532B" opacity="1.000000" stroke="none" 
	d="
M255.531342,0.999999 
	C257.121094,1.665527 258.187042,2.783051 259.371704,2.927592 
	C273.231049,4.618567 286.829285,7.576705 299.653809,13.051828 
	C323.069702,23.048721 343.041260,38.058933 360.245331,56.736168 
	C367.808716,64.947220 374.601624,73.905556 382.515808,81.745911 
	C391.391083,90.538445 400.978546,98.719078 412.378052,104.224426 
	C418.230042,107.050621 424.286041,109.574829 430.464905,111.569244 
	C436.413788,113.489441 442.628967,114.598991 448.747345,115.974915 
	C453.612793,117.069061 458.513123,118.007271 463.389496,119.054146 
	C466.410431,119.702698 467.061188,121.815491 467.035492,124.625618 
	C466.936493,135.453720 466.977997,146.283081 466.763367,157.712891 
	C466.380249,158.494324 466.202667,158.676544 466.026855,158.860489 
	C445.532776,158.923187 425.038696,159.039627 404.544617,159.039810 
	C275.055328,159.040970 145.565994,158.977402 16.076895,159.124908 
	C10.123926,159.131683 5.345277,157.924423 1.264217,153.689148 
	C1.000000,149.643097 1.000000,145.286194 1.248511,140.843872 
	C2.073643,139.647110 2.860162,138.595108 3.193901,137.415070 
	C6.033617,127.374229 12.083502,119.155525 18.336916,111.131493 
	C24.287500,103.496040 30.639544,96.171722 36.869507,88.756325 
	C41.056843,83.772217 44.815083,78.263420 49.680775,74.045425 
	C62.279087,63.124161 75.067726,52.365875 88.395836,42.362530 
	C97.605042,35.450603 107.668854,29.606928 117.685234,23.869827 
	C122.885605,20.891201 128.867111,19.305544 134.399780,16.872404 
	C150.792572,9.663220 167.821304,4.878208 185.642487,2.915133 
	C186.488388,2.821955 187.216843,1.662755 188.000000,1.000001 
	C210.354233,1.000000 232.708450,1.000000 255.531342,0.999999 
z"/>
<path fill="#CC532B" opacity="1.000000" stroke="none" 
	d="
M974.000000,202.535339 
	C973.345398,203.573608 972.429016,204.019760 972.077820,204.741074 
	C969.319885,210.405243 967.416077,216.652420 963.823181,221.706192 
	C957.423889,230.707687 950.029480,239.002335 943.038940,247.582626 
	C938.706421,252.900421 934.642090,258.475983 929.930664,263.435516 
	C924.427490,269.228546 918.477905,274.620392 912.487671,279.921509 
	C906.333618,285.367584 900.152100,290.844635 893.520569,295.673645 
	C884.855225,301.983643 875.690674,307.603821 866.822266,313.640320 
	C852.937012,323.091766 836.967407,327.762054 821.384399,333.138397 
	C804.994568,338.793121 787.976501,341.387390 770.529114,341.056305 
	C756.368713,340.787598 742.193909,341.244812 728.034912,340.940552 
	C710.353882,340.560669 693.202209,337.030304 676.822876,330.359589 
	C654.834778,321.404633 635.775879,308.055908 619.385315,290.890472 
	C610.817200,281.917358 601.843933,273.289307 593.803589,263.865631 
	C585.427917,254.048965 575.894531,245.717194 564.427368,240.176865 
	C555.557373,235.891373 545.845764,233.337143 536.480469,230.093521 
	C533.163879,228.944839 529.799072,227.897537 526.395386,227.047531 
	C521.993469,225.948151 517.568359,224.803665 513.082825,224.218018 
	C509.034546,223.689468 507.888550,221.675232 507.946686,217.884705 
	C508.110168,207.221207 508.021881,196.553848 508.236664,185.287140 
	C508.619751,184.505707 508.797333,184.323456 508.973145,184.139511 
	C529.467224,184.076828 549.961304,183.960358 570.455383,183.960190 
	C699.944641,183.959030 829.434021,184.022598 958.923096,183.875107 
	C964.876038,183.868317 969.654663,185.075531 973.735718,189.310837 
	C974.000000,193.356903 974.000000,197.713806 974.000000,202.535339 
z"/>
<path fill="#CC532B" opacity="1.000000" stroke="none" 
	d="
M1.000001,189.464645 
	C1.107910,189.126953 1.215818,189.253891 1.323725,189.380844 
	C6.888966,182.859558 14.422005,183.974808 21.754623,183.976212 
	C169.538742,184.004364 317.322876,183.992004 465.702942,184.203461 
	C466.473846,184.604263 466.651337,184.786911 466.831421,184.967056 
	C466.887238,196.293472 466.908264,207.620209 467.019043,218.946091 
	C467.054443,222.567703 465.153900,223.498383 461.844299,224.139099 
	C454.634247,225.534958 447.526886,227.497009 440.424835,229.403656 
	C435.153503,230.818802 429.957672,232.514755 424.723663,234.070221 
	C424.414581,234.162079 424.006897,234.008713 423.742096,234.150558 
	C413.373505,239.704208 401.792084,243.285904 393.107117,251.594391 
	C385.461578,258.908478 378.476074,266.908203 371.091705,274.500671 
	C362.569244,283.263245 354.149750,292.144196 345.281311,300.547150 
	C335.354675,309.952759 324.262085,317.863129 311.977997,324.001801 
	C297.521637,331.226044 282.465576,336.424622 266.431305,339.112396 
	C247.757950,342.242523 229.009979,340.261810 210.315247,341.041992 
	C194.211411,341.714020 178.188690,340.519867 162.883499,335.823639 
	C146.090164,330.670746 129.477264,324.577606 113.454887,317.400330 
	C104.269470,313.285675 96.097626,306.611053 88.030907,300.363922 
	C74.975395,290.253357 62.177338,279.782318 49.696205,268.972107 
	C44.827526,264.755219 41.068390,259.243835 36.879978,254.258148 
	C30.648495,246.840515 24.313564,239.500229 18.338047,231.879715 
	C11.847854,223.602814 5.716717,215.049255 2.917791,204.636887 
	C2.685714,203.773529 1.981745,203.036987 1.248512,202.620758 
	C1.000000,198.643097 1.000000,194.286194 1.000001,189.464645 
z"/>
<path fill="#CC532B" opacity="1.000000" stroke="none" 
	d="
M1.000000,481.468658 
	C11.894596,478.627930 22.892622,476.637268 33.640034,473.722473 
	C38.992241,472.270935 43.756046,468.770264 49.025993,466.857788 
	C53.440594,465.255768 57.876514,464.214966 61.700489,461.047211 
	C67.632996,456.132629 74.549194,452.336975 80.143066,447.099976 
	C86.673294,440.986420 92.011238,433.620422 98.265747,427.185883 
	C106.060509,419.166687 114.140900,411.412903 122.320488,403.783081 
	C132.448944,394.335358 143.577194,386.224823 156.008133,380.004883 
	C170.460175,372.773651 185.490112,367.423706 201.561905,364.935547 
	C225.538956,361.223480 249.640152,363.233063 273.665863,363.273987 
	C284.169525,363.291870 295.024780,365.138763 305.087250,368.221619 
	C321.100372,373.127563 336.918701,379.023590 352.170135,385.933868 
	C361.957703,390.368530 371.005188,396.815002 379.625977,403.358887 
	C392.906036,413.439362 405.737854,424.143616 418.338593,435.069092 
	C423.205231,439.288727 426.968933,444.795532 431.150299,449.786957 
	C437.265625,457.087067 443.369171,464.398926 449.359436,471.801514 
	C456.633698,480.790955 463.161499,490.288330 465.650055,501.805481 
	C466.476288,505.629211 466.292114,509.774231 465.945587,513.717468 
	C465.640991,517.183105 460.121216,520.001709 454.752625,520.001709 
	C341.787170,520.001099 228.821701,519.999451 115.856239,520.000488 
	C78.201393,520.000793 40.546551,520.008057 2.262485,519.796631 
	C1.403154,519.408020 1.192067,519.214355 1.000000,519.000000 
	C1.000000,506.645782 1.000000,494.291534 1.000000,481.468658 
z"/>
<path fill="#CC532B" opacity="1.000000" stroke="none" 
	d="
M973.027466,519.860535 
	C952.532715,519.923218 932.037964,520.039612 911.543213,520.039795 
	C782.049683,520.040894 652.556030,519.931030 523.062744,520.109985 
	C507.169922,520.131958 507.599457,512.587341 509.513519,501.642883 
	C511.598907,489.719025 518.879028,480.165955 526.475891,470.954102 
	C533.678589,462.220093 540.018860,452.729858 547.647461,444.405182 
	C554.692810,436.716919 562.862793,430.042053 570.691833,423.094818 
	C576.344116,418.079132 581.989563,412.988525 588.103210,408.575806 
	C597.064941,402.107483 606.432373,396.199951 615.645447,390.081421 
	C629.382629,380.958527 645.031189,376.208099 660.396362,370.946991 
	C676.978882,365.269043 694.122620,362.631927 711.731567,362.944885 
	C726.392883,363.205475 741.073364,362.642761 755.725647,363.090302 
	C773.209717,363.624359 790.214966,367.284668 806.355042,373.998871 
	C830.380188,383.993256 850.564087,399.548676 868.082581,418.622589 
	C875.299683,426.480377 881.792419,435.041138 889.358459,442.530792 
	C898.359924,451.441376 907.773193,460.431549 919.635193,465.211548 
	C932.468262,470.382843 945.959717,473.939911 959.218079,478.025604 
	C963.813232,479.441620 968.570251,480.332703 973.626648,481.231750 
	C974.000000,493.354218 974.000000,505.708466 973.846375,518.684143 
	C973.468567,519.487671 973.246765,519.672607 973.027466,519.860535 
z"/>

<path fill="#E25C30" opacity="1.000000" stroke="none" 
	d="
M1.000000,519.250000 
	C1.192067,519.214355 1.403154,519.408020 1.796704,519.720703 
	C1.960147,519.860413 1.485261,519.965881 1.242630,519.982910 
	C1.000000,520.000000 1.000000,519.500000 1.000000,519.250000 
z"/>
<path fill="#E25C30" opacity="1.000000" stroke="none" 
	d="
M973.267883,519.914307 
	C973.246765,519.672607 973.468567,519.487671 973.846375,519.152832 
	C974.000000,519.000000 974.000000,519.500000 974.000000,519.750000 
	C974.000000,520.000000 973.508301,519.968140 973.267883,519.914307 
z"/>
<path fill="#E25C30" opacity="1.000000" stroke="none" 
	d="
M1.732294,545.085632 
	C1.753400,545.327393 1.531573,545.512329 1.153645,545.847168 
	C1.000000,546.000000 1.000000,545.500000 1.000000,545.250000 
	C1.000000,545.000000 1.491817,545.031799 1.732294,545.085632 
z"/>
<path fill="#E25C30" opacity="1.000000" stroke="none" 
	d="
M974.000000,545.750000 
	C973.807861,545.785522 973.596680,545.591858 973.203003,545.279297 
	C973.039612,545.139587 973.514587,545.034119 973.757324,545.017090 
	C974.000000,545.000000 974.000000,545.500000 974.000000,545.750000 
z"/>
<path fill="#E25C30" opacity="1.000000" stroke="none" 
	d="
M508.728760,184.130142 
	C508.797333,184.323456 508.619751,184.505707 508.304138,184.819794 
	C508.021362,184.580017 508.126892,184.302490 508.728760,184.130142 
z"/>
<path fill="#E25C30" opacity="1.000000" stroke="none" 
	d="
M466.851257,184.722900 
	C466.651337,184.786911 466.473846,184.604263 466.168640,184.279373 
	C466.413910,184.012131 466.691467,184.125168 466.851257,184.722900 
z"/>
<path fill="#E25C30" opacity="1.000000" stroke="none" 
	d="
M508.148743,158.277100 
	C508.348663,158.213089 508.526154,158.395737 508.831360,158.720627 
	C508.961609,158.860382 508.471802,158.871216 508.471802,158.871216 
	C508.471802,158.871216 508.128937,158.521240 508.148743,158.277100 
z"/>
<path fill="#E25C30" opacity="1.000000" stroke="none" 
	d="
M466.271240,158.869843 
	C466.202667,158.676544 466.380249,158.494324 466.695892,158.180237 
	C466.978607,158.419983 466.873077,158.697495 466.271240,158.869843 
z"/>
</svg>